<svg width="24" height="25" viewBox="0 0 24 25" fill="none" xmlns="http://www.w3.org/2000/svg">
<g clip-path="url(#clip0_12_21301)">
<path d="M12 0.75C5.3724 0.75 0 6.1224 0 12.75C0 19.3776 5.3724 24.75 12 24.75C18.6276 24.75 24 19.3776 24 12.75C24 6.1224 18.6276 0.75 12 0.75Z" fill="url(#paint0_linear_12_21301)"/>
<path d="M13.7285 17.6079H16.9851L17.4966 14.2996H13.7285V12.4914C13.7285 11.1173 14.1778 9.89862 15.4632 9.89862H17.5287V7.01199C17.1657 6.96292 16.3981 6.85596 14.9479 6.85596C11.9191 6.85596 10.1435 8.45531 10.1435 12.0994V14.3003H7.02979V17.6085H10.1429V26.7012C10.7595 26.7931 11.3843 26.856 12.0254 26.856C12.6048 26.856 13.1705 26.8031 13.7285 26.7277V17.6079Z" fill="white"/>
</g>
<defs>
<linearGradient id="paint0_linear_12_21301" x1="-8.48528" y1="9.23528" x2="8.48528" y2="26.2058" gradientUnits="userSpaceOnUse">
<stop stop-color="#2AA4F4"/>
<stop offset="1" stop-color="#007AD9"/>
</linearGradient>
<clipPath id="clip0_12_21301">
<rect width="24" height="24" fill="white" transform="translate(0 0.75)"/>
</clipPath>
</defs>
</svg>
