<svg width="24" height="25" viewBox="0 0 24 25" fill="none" xmlns="http://www.w3.org/2000/svg">
<g clip-path="url(#clip0_12_21307)">
<path d="M23.5079 12.9747C23.5079 11.9914 23.4295 11.2739 23.2598 10.5298H12.2295V14.9678H18.7041C18.5736 16.0707 17.8687 17.7316 16.3022 18.8477L16.2802 18.9963L19.7678 21.7465L20.0095 21.7711C22.2285 19.6849 23.5079 16.6154 23.5079 12.9747Z" fill="#4285F4"/>
<path d="M12.2296 24.6673C15.4016 24.6673 18.0645 23.6043 20.0096 21.7707L16.3023 18.8473C15.3102 19.5516 13.9787 20.0432 12.2296 20.0432C9.12281 20.0432 6.48598 17.9571 5.54603 15.0737L5.40826 15.0856L1.7818 17.9425L1.73438 18.0767C3.6663 21.9832 7.63462 24.6673 12.2296 24.6673Z" fill="#34A853"/>
<path d="M5.54622 15.0738C5.2982 14.3297 5.15467 13.5324 5.15467 12.7086C5.15467 11.8847 5.2982 11.0875 5.53317 10.3434L5.5266 10.1849L1.85471 7.28223L1.73457 7.34039C0.938328 8.9615 0.481445 10.7819 0.481445 12.7086C0.481445 14.6353 0.938328 16.4556 1.73457 18.0767L5.54622 15.0738Z" fill="#FBBC05"/>
<path d="M12.2296 5.37403C14.4356 5.37403 15.9237 6.34401 16.7722 7.15461L20.0878 3.85928C18.0515 1.9326 15.4016 0.75 12.2296 0.75C7.63461 0.75 3.6663 3.43406 1.73438 7.34056L5.53297 10.3436C6.48597 7.4602 9.1228 5.37403 12.2296 5.37403Z" fill="#EB4335"/>
</g>
<defs>
<clipPath id="clip0_12_21307">
<rect width="23.0391" height="24" fill="white" transform="translate(0.47998 0.75)"/>
</clipPath>
</defs>
</svg>
